<?xml version="1.0" encoding="iso-8859-1"?>
<!-- Generator: Adobe Illustrator 19.0.0, SVG Export Plug-In . SVG Version: 6.00 Build 0)  -->
<svg version="1.1" id="Capa_1" xmlns="http://www.w3.org/2000/svg" xmlns:xlink="http://www.w3.org/1999/xlink" x="0px" y="0px"
	 viewBox="0 0 512 512" style="enable-background:new 0 0 512 512;" xml:space="preserve">
<g>
	<g>
		<path d="M379.356,347.75h-66.857v-7.342c0-6.893-5.607-12.5-12.5-12.5h-5.344v-10.112c29.807-11.378,53.359-35.509,63.956-65.688
			h10.472c17.173,0,31.144-13.972,31.144-31.146v-25.701c0-17.174-13.972-31.145-31.144-31.145h-4.365V86.541
			c9.174-4.569,14.982-9.557,18.304-15.797c3.862-7.254,3.862-15.785,0-26.081c-7.32-19.514-37.704-31.163-81.276-31.163
			c-12.136,0-24.734,0.929-37.415,2.719C259.465,6.606,249.491,0,237.999,0c-16.267,0-29.5,13.233-29.5,29.5
			c0,0.041,0.004,0.082,0.004,0.123c-25.191,8.457-47.398,19.233-63.871,31.143c-23.155,16.742-33.508,34.917-29.151,51.176
			c4.838,18.059,20.963,22.113,31.799,23.025v29.148h-4.364c-17.173,0-31.145,13.972-31.145,31.145v25.701
			c0,17.174,13.972,31.146,31.145,31.146h10.472c10.597,30.18,34.149,54.311,63.956,65.688v10.112h-3.345
			c-6.893,0-12.5,5.607-12.5,12.5v7.342h-68.857c-12.406,0-22.5,10.094-22.5,22.5V494.5c0,9.649,7.851,17.5,17.5,17.5h256.715
			c9.649,0,17.5-7.851,17.5-17.5V370.25C401.856,357.844,391.764,347.75,379.356,347.75z M328.244,275.819
			c-3.551-2.575-5.745-6.723-5.745-11.319c0-7.72,6.28-14,14-14c2.162,0,4.243,0.502,6.131,1.424
			C339.028,260.622,334.158,268.666,328.244,275.819z M369.082,179.116c8.903-0.001,16.145,7.242,16.145,16.145v25.701
			c0,8.902-7.242,16.146-16.144,16.146h-6.394c1.326-6.773,2.028-13.768,2.028-20.923v-1.118h5.291c4.143,0,7.5-3.357,7.5-7.5
			s-3.357-7.5-7.5-7.5h-5.291v-20.951H369.082z M237.999,15c3.863,0,7.367,1.525,9.965,3.999
			c-6.268,1.249-12.517,2.702-18.699,4.358c-1.659,0.444-3.302,0.908-4.943,1.373C226.301,19.074,231.677,15,237.999,15z
			 M142.915,237.107c-8.902,0-16.145-7.243-16.145-16.146V195.26c0-8.902,7.242-16.145,16.145-16.145h4.365v20.951h-5.292
			c-4.143,0-7.5,3.357-7.5,7.5s3.357,7.5,7.5,7.5h5.292v1.118c0,7.155,0.702,14.149,2.028,20.923H142.915z M129.97,108.059
			c-2.593-9.679,5.955-22.486,23.452-35.138c19.429-14.048,47.742-26.505,79.727-35.075c22.818-6.114,46.539-9.346,68.599-9.346
			c40.89,0,63.229,10.764,67.23,21.431c2.979,7.943,1.995,11.529,0.805,13.766c-6.639,12.472-42.539,21.015-107.71,36.523
			l-11.641,2.772c-39.553,9.433-74.036,17.241-95.463,17.241C135.864,120.233,131.663,114.382,129.97,108.059z M349.718,140.893
			l-19.147-19.146l19.146-4.351L349.718,140.893z M183.754,275.819c-5.914-7.152-10.784-15.197-14.386-23.895
			c1.888-0.922,3.969-1.424,6.131-1.424c7.72,0,14,6.28,14,14C189.499,269.097,187.306,273.244,183.754,275.819z M194.251,286.623
			c6.373-5.369,10.249-13.344,10.249-22.123c0-15.99-13.01-29-29-29c-3.746,0-7.375,0.729-10.752,2.079
			c-1.611-6.874-2.467-14.036-2.467-21.395v-56.198l87.38-19.854c4.039-0.918,6.569-4.937,5.651-8.976
			c-0.918-4.038-4.93-6.566-8.976-5.651l-84.057,19.1v-9.594c20.397-1.169,47.983-7.018,91.632-17.428l11.633-2.771
			c38.46-9.152,65.529-15.596,84.173-22.108v9.309l-57.38,13.039c-4.039,0.918-6.569,4.936-5.651,8.975
			c0.918,4.039,4.933,6.569,8.976,5.651l17.625-4.005l36.432,36.433v54.078c0,7.358-0.855,14.52-2.467,21.395
			c-3.377-1.351-7.006-2.079-10.752-2.079c-15.99,0-29,13.01-29,29c0,8.779,3.877,16.753,10.249,22.123
			c-16.503,14.484-38.117,23.281-61.749,23.281C232.368,309.904,210.754,301.107,194.251,286.623z M279.655,322.305v5.604h-47.313
			v-5.604h0.001c7.619,1.697,15.533,2.6,23.656,2.6S272.036,324.003,279.655,322.305z M216.499,342.908h81v4.842h-81V342.908z
			 M195.29,387.744h66.709c4.143,0,7.5-3.357,7.5-7.5s-3.357-7.5-7.5-7.5H195.29v-9.994h121.418v9.994h-14.709
			c-4.143,0-7.5,3.357-7.5,7.5s3.357,7.5,7.5,7.5h14.709v9.688H195.29V387.744z M152.124,497h-24.482c-1.356,0-2.5-1.145-2.5-2.5v-8
			h26.982V497z M152.124,471.5h-26.982v-9.689h26.982V471.5z M152.124,446.811h-26.982v-9.689h26.982V446.811z M152.124,422.122
			h-26.982v-9.69h26.982V422.122z M152.124,397.433h-26.982v-9.688h26.982V397.433z M152.124,372.744h-26.982v-2.494
			c0-4.136,3.364-7.5,7.5-7.5h19.482V372.744z M180.29,497h-13.166v-18.5h13.166V497z M180.29,463.5h-13.166v-19.758h13.166V463.5z
			 M180.29,428.742h-13.166V362.75h13.166V428.742z M316.708,497H195.29v-10.5h121.418V497z M316.708,446.811h-73.709
			c-4.143,0-7.5,3.357-7.5,7.5s3.357,7.5,7.5,7.5h73.709v9.689H195.29v-9.689h8.708c4.143,0,7.5-3.357,7.5-7.5s-3.357-7.5-7.5-7.5
			h-8.708v-9.689h121.418V446.811z M195.29,422.122v-9.69h121.418v9.69H195.29z M344.874,497h-13.166v-18.5h13.166V497z
			 M344.874,463.5h-13.166v-19.758h0h13.166V463.5z M344.874,428.742h-13.166V362.75h13.166V428.742z M386.856,494.5
			c0,1.355-1.144,2.5-2.5,2.5h-24.482v-10.5h26.982V494.5z M386.856,471.5h-26.982v-9.689h26.982V471.5z M386.856,446.811h-26.982
			v-9.689h26.982V446.811z M386.856,422.122h-26.982v-9.69h26.982V422.122z M386.856,397.433h-26.982v-9.688h26.982V397.433z
			 M386.856,372.744h-26.982v-9.994h19.482c4.136,0,7.5,3.364,7.5,7.5V372.744z"/>
	</g>
</g>
<g>
	<g>
		<path d="M264.733,219.342h-8.734c-0.298,0-1.234-0.914-1.234-2.5V190c0-4.143-3.357-7.5-7.5-7.5s-7.5,3.357-7.5,7.5v26.842
			c0,9.649,7.283,17.5,16.234,17.5h8.734c4.143,0,7.5-3.357,7.5-7.5S268.876,219.342,264.733,219.342z"/>
	</g>
</g>
<g>
	<g>
		<path d="M297.139,267.574c-2.251-14.295-14.868-25.074-29.347-25.074c-4.08,0-8.087,0.835-11.793,2.44
			c-3.706-1.605-7.713-2.44-11.793-2.44c-14.48,0-27.096,10.779-29.347,25.08c-0.476,3.039,0.398,6.12,2.394,8.45
			c1.998,2.337,4.906,3.677,7.98,3.677h2.02c3.332,12.762,14.955,22.207,28.746,22.207s25.414-9.445,28.746-22.207h2.02
			c3.074,0,5.982-1.34,7.978-3.673C296.741,273.7,297.616,270.619,297.139,267.574z M255.999,286.914
			c-5.372,0-10.08-2.896-12.648-7.207h25.295C266.079,284.019,261.371,286.914,255.999,286.914z M231.572,264.707
			c2.602-4.33,7.369-7.207,12.634-7.207c2.768,0,5.467,0.776,7.805,2.244c2.439,1.531,5.537,1.531,7.977,0
			c2.338-1.468,5.037-2.244,7.805-2.244c5.267,0,10.034,2.878,12.635,7.207H231.572z"/>
	</g>
</g>
<g>
	<g>
		<path d="M218.379,177.695l-6.983-17.973c-1.701-4.376-5.288-5.936-8.077-5.936s-6.376,1.56-8.078,5.938l-6.983,17.973
			c-5.552,4.446-9.119,11.285-9.119,18.947s3.567,14.501,9.119,18.947l6.984,17.975c1.701,4.376,5.288,5.936,8.077,5.936
			c2.788-0.001,6.375-1.561,8.078-5.938l6.982-17.971c5.553-4.446,9.12-11.286,9.12-18.949S223.932,182.141,218.379,177.695z
			 M203.32,205.89c-5.064,0-9.183-4.147-9.183-9.246s4.119-9.246,9.183-9.246c5.061,0,9.179,4.147,9.179,9.246
			C212.499,201.742,208.382,205.89,203.32,205.89z"/>
	</g>
</g>
<g>
	<g>
		<path d="M323.739,177.695l-6.983-17.973c-1.701-4.376-5.288-5.936-8.077-5.936s-6.376,1.56-8.078,5.938l-6.983,17.973
			c-5.552,4.446-9.119,11.285-9.119,18.947c0,7.662,3.567,14.501,9.119,18.947l6.984,17.975c1.701,4.376,5.288,5.936,8.077,5.936
			s6.376-1.56,8.078-5.938l6.982-17.971c5.553-4.446,9.12-11.286,9.12-18.949C332.859,188.981,329.293,182.141,323.739,177.695z
			 M308.683,205.89c-5.064,0-9.183-4.148-9.183-9.246c0-5.099,4.119-9.246,9.183-9.246c5.062,0,9.179,4.147,9.179,9.246
			S313.744,205.89,308.683,205.89z"/>
	</g>
</g>
<g>
</g>
<g>
</g>
<g>
</g>
<g>
</g>
<g>
</g>
<g>
</g>
<g>
</g>
<g>
</g>
<g>
</g>
<g>
</g>
<g>
</g>
<g>
</g>
<g>
</g>
<g>
</g>
<g>
</g>
</svg>
